<svg width="535" height="102" viewBox="0 0 535 102" fill="none" xmlns="http://www.w3.org/2000/svg">
<path d="M26.4656 51.0234H39.0064H51.5473L75.2355 81.6788L39.0064 70.5314L2.77734 81.6788L26.4656 51.0234Z" fill="url(#paint0_linear_11603_35260)"/>
<path d="M38.4179 0.869141H39.0214H39.6249C40.1847 0.869141 40.6944 1.19152 40.9343 1.69727L55.7425 32.9179L46.6219 28.7377H31.4209L22.3003 32.9179L37.1085 1.69727C37.3484 1.19152 37.8581 0.869141 38.4179 0.869141Z" fill="url(#paint1_linear_11603_35260)"/>
<path d="M22.3003 32.8551L31.4209 28.6748H46.6219L55.7425 32.8551L54.2224 48.1828L40.542 76.0513H37.5014L23.8204 48.1828L22.3003 32.8551Z" fill="url(#paint2_linear_11603_35260)"/>
<path d="M28.4881 53.4621L39.0159 48.1982L49.5437 53.4621C49.9481 53.6643 50.2853 53.9793 50.5146 54.369L78.0319 101.148H77.0428C75.8739 101.148 74.7346 100.781 73.786 100.098L40.4094 76.0668H37.6225L4.24581 100.098C3.29723 100.781 2.15794 101.148 0.989071 101.148H0L27.5173 54.369C27.7465 53.9793 28.0837 53.6643 28.4881 53.4621Z" fill="url(#paint3_linear_11603_35260)"/>
<path d="M30.6257 34.2469L38.9863 0.804688L47.3468 34.2469L50.1337 50.968L40.3798 76.0497H37.5928L27.8389 50.968L30.6257 34.2469Z" fill="url(#paint4_linear_11603_35260)"/>
<path d="M39.0132 1.51953L39.0132 75.9285" stroke="url(#paint5_linear_11603_35260)" stroke-width="0.278685" stroke-linecap="square"/>
<path d="M38.8667 1.4262L39.006 0.869141L39.1452 1.4262H38.8667Z" fill="#FFD36F"/>
<path d="M103.025 77.3486V25.7712H120.987C125.556 25.7712 128.898 26.18 131.014 26.9976C133.996 28.1517 136.328 30.0273 138.012 32.6242C139.695 35.173 140.536 38.2989 140.536 42.0019C140.536 44.8873 139.863 47.6526 138.516 50.2975C137.17 52.8945 135.27 54.8181 132.818 56.0684V56.2127C133.299 56.8379 133.948 57.8719 134.765 59.3146L144.792 77.3486H130.726L121.564 59.9638H115.649V77.3486H103.025ZM115.649 49.1434H121.132C123.2 49.1434 124.811 48.5903 125.965 47.4842C127.119 46.3781 127.696 44.8152 127.696 42.7954C127.696 39.958 126.686 38.1306 124.666 37.313C123.56 36.8321 121.973 36.5917 119.905 36.5917H115.649V49.1434ZM151.838 72.8762C147.798 69.2694 145.779 64.6046 145.779 58.8818C145.779 53.159 147.798 48.4701 151.838 44.8152C155.878 41.1603 160.855 39.3328 166.77 39.3328C172.733 39.3328 177.735 41.1603 181.775 44.8152C185.862 48.422 187.906 53.1109 187.906 58.8818C187.906 64.6046 185.886 69.2694 181.847 72.8762C177.807 76.4349 172.806 78.2143 166.842 78.2143C160.879 78.2143 155.878 76.4349 151.838 72.8762ZM158.402 58.8818C158.402 61.5748 159.22 63.7389 160.855 65.374C162.49 67.0091 164.486 67.8267 166.842 67.8267C169.199 67.8267 171.195 67.0091 172.83 65.374C174.465 63.7389 175.282 61.5748 175.282 58.8818C175.282 56.1406 174.465 53.9284 172.83 52.2452C171.195 50.5621 169.199 49.7205 166.842 49.7205C164.486 49.7205 162.49 50.5621 160.855 52.2452C159.22 53.9284 158.402 56.1406 158.402 58.8818ZM192.061 58.7375C192.061 53.4475 193.913 48.9029 197.616 45.1037C201.367 41.2565 206.416 39.3328 212.764 39.3328C215.554 39.3328 218.271 39.8138 220.916 40.7756C223.609 41.6893 225.821 43.0839 227.552 44.9595L222.286 53.3273C219.786 50.9227 216.876 49.7205 213.558 49.7205C210.769 49.7205 208.58 50.6101 206.993 52.3895C205.455 54.1208 204.685 56.1887 204.685 58.5932C204.685 61.0458 205.503 63.2099 207.138 65.0855C208.773 66.9129 211.057 67.8267 213.991 67.8267C217.309 67.8267 220.699 66.3358 224.162 63.3542L228.706 72.0827C226.879 73.9582 224.523 75.449 221.637 76.5551C218.8 77.6612 215.842 78.2143 212.764 78.2143C206.416 78.2143 201.367 76.3147 197.616 72.5155C193.913 68.7163 192.061 64.1237 192.061 58.7375ZM233.955 77.3486V25.7712H246.435V52.4616H249.969L257.327 40.1985H270.889L259.996 57.0784V57.2226L272.404 77.3486H258.193L250.33 62.9214H246.435V77.3486H233.955ZM273.074 58.7375C273.074 53.159 274.829 48.5422 278.34 44.8873C281.85 41.1843 286.539 39.3328 292.406 39.3328C297.744 39.3328 301.928 41.016 304.958 44.3824C308.036 47.7006 309.575 52.0048 309.575 57.2948C309.575 58.1604 309.478 59.4589 309.286 61.1901H285.842C286.275 63.3542 287.284 65.0133 288.871 66.1675C290.507 67.2736 292.382 67.8267 294.498 67.8267C297.576 67.8267 300.99 66.5763 304.741 64.0756L309.358 72.8041C307.386 74.4872 304.958 75.8097 302.072 76.7715C299.235 77.7334 296.374 78.2143 293.488 78.2143C287.188 78.2143 282.211 76.2906 278.556 72.4434C274.901 68.5961 273.074 64.0275 273.074 58.7375ZM286.13 54.0486H297.239C297.239 52.4616 296.758 51.1391 295.797 50.0811C294.883 49.0231 293.657 48.4941 292.118 48.4941C288.944 48.4941 286.948 50.3456 286.13 54.0486ZM318.258 63.6428V50.5861H313.497V40.8477H318.619V30.1715H330.738V40.8477H338.529V50.5861H330.738V61.9836C330.738 65.1576 332.95 66.7446 337.375 66.7446C337.952 66.7446 338.505 66.7206 339.034 66.6725V77.4929C337.158 77.6372 336.028 77.7093 335.643 77.7093C334.489 77.7093 333.359 77.6372 332.253 77.4929C331.195 77.3967 329.945 77.1803 328.502 76.8437C327.107 76.507 325.833 76.0021 324.679 75.3288C323.573 74.6555 322.515 73.838 321.505 72.8762C320.495 71.8663 319.701 70.5678 319.124 68.9808C318.547 67.3938 318.258 65.6145 318.258 63.6428ZM348.854 77.3486V26.6369H366.383C370.951 26.6369 374.703 28.0315 377.636 30.8208C380.57 33.61 382.036 37.313 382.036 41.9297C382.036 46.5946 380.57 50.3456 377.636 53.183C374.703 56.0204 370.951 57.439 366.383 57.439H353.831V77.3486H348.854ZM353.831 52.9666H365.734C369.148 52.9666 371.865 51.9807 373.885 50.009C375.905 48.0373 376.915 45.3442 376.915 41.9297C376.915 38.5634 375.905 35.9184 373.885 33.9948C371.913 32.0711 369.22 31.1093 365.806 31.1093H353.831V52.9666ZM386.434 67.6102C386.434 59.1944 393.792 54.9864 408.508 54.9864H410.672V53.9765C410.672 47.7247 407.69 44.5988 401.727 44.5988C398.024 44.5988 394.585 45.753 391.411 48.0613L389.175 44.3102C390.618 43.0599 392.518 42.074 394.874 41.3527C397.23 40.5832 399.611 40.1985 402.015 40.1985C406.392 40.1985 409.734 41.4007 412.042 43.8053C414.399 46.1617 415.577 49.6002 415.577 54.1208V77.3486H410.888V73.0926L411.105 70.0629H410.96C409.95 72.3712 408.339 74.3189 406.127 75.9059C403.963 77.4448 401.486 78.2143 398.697 78.2143C395.379 78.2143 392.493 77.2765 390.041 75.401C387.636 73.5254 386.434 70.9285 386.434 67.6102ZM391.411 67.1774C391.411 69.0049 392.133 70.6159 393.576 72.0106C395.018 73.4052 397.014 74.1025 399.563 74.1025C402.881 74.1025 405.55 72.7079 407.57 69.9186C409.638 67.1293 410.672 64.0034 410.672 60.5409V58.8818H408.58C407.041 58.8818 405.694 58.9058 404.54 58.9539C403.434 59.002 401.967 59.1944 400.14 59.531C398.361 59.8195 396.894 60.2283 395.74 60.7573C394.585 61.2863 393.576 62.1038 392.71 63.2099C391.844 64.316 391.411 65.6385 391.411 67.1774ZM429.687 85.5722C432.861 87.2072 436.155 88.0248 439.57 88.0248C443.369 88.0248 446.423 87.087 448.731 85.2115C451.039 83.384 452.194 80.5467 452.194 76.6994V73.0926L452.482 70.4236H452.338C449.981 74.896 446.134 77.1322 440.796 77.1322C435.939 77.1322 432.019 75.401 429.038 71.9384C426.104 68.4759 424.638 64.0034 424.638 58.5211C424.638 53.0387 426.056 48.6144 428.894 45.248C431.731 41.8817 435.554 40.1985 440.363 40.1985C442.96 40.1985 445.341 40.7275 447.505 41.7855C449.717 42.8435 451.352 44.4305 452.41 46.5465H452.554C452.458 46.2579 452.41 45.8491 452.41 45.3202V41.0641H457.171V76.483C457.171 81.8692 455.488 85.8848 452.121 88.5297C448.803 91.1747 444.667 92.4972 439.714 92.4972C435.53 92.4972 431.587 91.5114 427.884 89.5397L429.687 85.5722ZM432.573 48.2777C430.601 50.7304 429.615 54.1208 429.615 58.4489C429.615 62.7771 430.697 66.2397 432.861 68.8366C435.025 71.4335 437.911 72.7319 441.517 72.7319C444.74 72.7319 447.336 71.6258 449.308 69.4136C451.328 67.1534 452.338 63.5225 452.338 58.5211C452.338 49.2396 448.515 44.5988 440.868 44.5988C437.358 44.5988 434.592 45.8251 432.573 48.2777ZM466.407 59.2424C466.407 53.4715 468.114 48.8548 471.528 45.3923C474.991 41.9297 479.271 40.1985 484.368 40.1985C489.178 40.1985 492.905 41.8095 495.55 45.0316C498.195 48.2056 499.517 52.1731 499.517 56.9341C499.517 57.5112 499.469 58.3287 499.373 59.3867H471.528C471.624 63.8592 473.019 67.3698 475.712 69.9186C478.405 72.4674 481.699 73.7418 485.595 73.7418C489.779 73.7418 493.458 72.2991 496.632 69.4136L498.868 73.1647C497.185 74.7036 495.117 75.93 492.664 76.8437C490.26 77.7574 487.855 78.2143 485.451 78.2143C480.016 78.2143 475.472 76.4349 471.817 72.8762C468.21 69.3175 466.407 64.7729 466.407 59.2424ZM471.745 55.4914H494.54C494.395 51.8845 493.361 49.1193 491.438 47.1957C489.514 45.224 487.11 44.2381 484.224 44.2381C481.098 44.2381 478.381 45.224 476.073 47.1957C473.764 49.1674 472.322 51.9326 471.745 55.4914ZM505.558 72.9483L508.155 69.4858C510.992 72.4193 514.647 73.8861 519.119 73.8861C521.235 73.8861 522.967 73.3811 524.313 72.3712C525.708 71.3132 526.405 69.8705 526.405 68.0431C526.405 66.5522 525.732 65.3019 524.385 64.292C523.087 63.234 521.476 62.3683 519.552 61.6951C517.677 60.9737 515.777 60.2043 513.853 59.3867C511.978 58.5692 510.367 57.415 509.02 55.9242C507.722 54.3853 507.073 52.5097 507.073 50.2975C507.073 47.1236 508.251 44.6469 510.607 42.8675C512.964 41.0882 515.897 40.1985 519.408 40.1985C524.073 40.1985 527.8 41.521 530.589 44.166L528.281 47.8449C527.271 46.835 525.924 46.0415 524.241 45.4644C522.558 44.8392 520.875 44.5267 519.191 44.5267C517.124 44.5267 515.392 45.0076 513.998 45.9694C512.603 46.8831 511.906 48.2777 511.906 50.1533C511.906 51.6441 512.555 52.9185 513.853 53.9765C515.2 55.0345 516.835 55.9242 518.759 56.6455C520.682 57.3188 522.582 58.0642 524.457 58.8818C526.381 59.6993 527.992 60.8775 529.291 62.4164C530.637 63.9073 531.31 65.7587 531.31 67.9709C531.31 70.9526 530.156 73.4052 527.848 75.3288C525.539 77.2525 522.606 78.2143 519.047 78.2143C513.421 78.2143 508.924 76.459 505.558 72.9483Z" fill="white"/>
<defs>
<linearGradient id="paint0_linear_11603_35260" x1="39.0064" y1="51.0234" x2="39.0064" y2="88.1722" gradientUnits="userSpaceOnUse">
<stop offset="0.129472" stop-color="#243060"/>
<stop offset="1" stop-color="#9AA7FF"/>
</linearGradient>
<linearGradient id="paint1_linear_11603_35260" x1="39.0214" y1="7.93016" x2="39.0214" y2="38.6867" gradientUnits="userSpaceOnUse">
<stop stop-color="#243060"/>
<stop offset="1" stop-color="#9AA7FF"/>
</linearGradient>
<linearGradient id="paint2_linear_11603_35260" x1="39.0214" y1="28.6748" x2="39.0214" y2="76.0513" gradientUnits="userSpaceOnUse">
<stop stop-color="#FE7165"/>
<stop offset="1" stop-color="#FFD970"/>
</linearGradient>
<linearGradient id="paint3_linear_11603_35260" x1="39.0159" y1="74.6733" x2="39.0159" y2="101.148" gradientUnits="userSpaceOnUse">
<stop stop-color="#FE7165"/>
<stop offset="1" stop-color="#FFD770"/>
</linearGradient>
<linearGradient id="paint4_linear_11603_35260" x1="38.9863" y1="0.804687" x2="38.9863" y2="76.0497" gradientUnits="userSpaceOnUse">
<stop offset="0.289259" stop-color="#FE7165"/>
<stop offset="0.689259" stop-color="#FFD970"/>
</linearGradient>
<linearGradient id="paint5_linear_11603_35260" x1="39.5131" y1="1.51953" x2="39.5131" y2="75.9285" gradientUnits="userSpaceOnUse">
<stop offset="0.684082" stop-color="#FFD36F"/>
<stop offset="1" stop-color="#FE7165"/>
</linearGradient>
</defs>
</svg>
