<svg width="250" height="250" viewBox="0 0 250 250" fill="none" xmlns="http://www.w3.org/2000/svg">
<path d="M95.3505 125.001H125H154.65L210.654 197.478L125 171.123L39.3457 197.478L95.3505 125.001Z" fill="url(#paint0_linear_455_78)"/>
<path d="M123.571 6.40234H124.998H126.425C127.748 6.40234 128.953 7.16452 129.52 8.36024L164.529 82.1703L142.967 72.2875H107.029L85.4668 82.1703L120.476 8.36024C121.043 7.16452 122.248 6.40234 123.571 6.40234Z" fill="url(#paint1_linear_455_78)"/>
<path d="M85.4668 82.1742L107.03 72.291H142.969L164.532 82.1742L160.938 118.413L128.595 184.301H121.406L89.0607 118.413L85.4668 82.1742Z" fill="url(#paint2_linear_455_78)"/>
<path d="M100.111 130.857L125.001 118.412L149.891 130.857C150.847 131.335 151.645 132.08 152.187 133.001L217.244 243.599H214.906C212.142 243.599 209.449 242.73 207.206 241.116L128.295 184.3H121.707L42.7959 241.116C40.5533 242.73 37.8597 243.599 35.0962 243.599H32.7578L97.8154 133.001C98.3574 132.08 99.1546 131.335 100.111 130.857Z" fill="url(#paint3_linear_455_78)"/>
<path d="M105.233 85.4679L125 6.40234L144.766 85.4679L151.355 125.001L128.294 184.3H121.705L98.6445 125.001L105.233 85.4679Z" fill="url(#paint4_linear_455_78)"/>
<path d="M125 8.04883L125 183.97" stroke="url(#paint5_linear_455_78)" stroke-width="0.658879" stroke-linecap="square"/>
<path d="M124.67 7.72073L125 6.40234L125.329 7.72073H124.67Z" fill="#FFD36F"/>
<defs>
<linearGradient id="paint0_linear_455_78" x1="125" y1="125.001" x2="125" y2="212.83" gradientUnits="userSpaceOnUse">
<stop offset="0.129472" stop-color="#243060"/>
<stop offset="1" stop-color="#9AA7FF"/>
</linearGradient>
<linearGradient id="paint1_linear_455_78" x1="124.998" y1="23.0956" x2="124.998" y2="95.8085" gradientUnits="userSpaceOnUse">
<stop stop-color="#243060"/>
<stop offset="1" stop-color="#9AA7FF"/>
</linearGradient>
<linearGradient id="paint2_linear_455_78" x1="125" y1="72.291" x2="125" y2="184.301" gradientUnits="userSpaceOnUse">
<stop stop-color="#FE7165"/>
<stop offset="1" stop-color="#FFD970"/>
</linearGradient>
<linearGradient id="paint3_linear_455_78" x1="125.001" y1="181.006" x2="125.001" y2="243.599" gradientUnits="userSpaceOnUse">
<stop stop-color="#FE7165"/>
<stop offset="1" stop-color="#FFD770"/>
</linearGradient>
<linearGradient id="paint4_linear_455_78" x1="125" y1="6.40234" x2="125" y2="184.3" gradientUnits="userSpaceOnUse">
<stop offset="0.289259" stop-color="#FE7165"/>
<stop offset="0.689259" stop-color="#FFD970"/>
</linearGradient>
<linearGradient id="paint5_linear_455_78" x1="125.5" y1="8.04883" x2="125.5" y2="183.97" gradientUnits="userSpaceOnUse">
<stop offset="0.6996" stop-color="#FFD36F"/>
<stop offset="1" stop-color="#FE7165"/>
</linearGradient>
</defs>
</svg>
